<svg xmlns="http://www.w3.org/2000/svg" version="1.1" xmlns:xlink="http://www.w3.org/1999/xlink" xmlns:svgjs="http://svgjs.dev/svgjs" width="1500" height="1500" viewBox="0 0 1500 1500"><rect width="1500" height="1500" fill="#ffffff"></rect><g transform="matrix(0.6666666666666666,0,0,0.6666666666666666,248.79298905002713,487)"><svg viewBox="0 0 380 200" data-background-color="#ffffff" preserveAspectRatio="xMidYMid meet" height="789" width="1500" xmlns="http://www.w3.org/2000/svg" xmlns:xlink="http://www.w3.org/1999/xlink"><g id="tight-bounds" transform="matrix(1,0,0,1,0.45866416098968443,0)"><svg viewBox="0 0 379.08259822203826 200" height="200" width="379.08259822203826"><g><svg viewBox="0 0 420.8360540149316 222.02868503525306" height="200" width="379.08259822203826"><g><rect width="4.22681372197603" height="222.02868503525306" x="161.73753042214003" y="0" fill="#000000" opacity="1" stroke-width="0" stroke="transparent" fill-opacity="1" class="rect-yte-0" data-fill-palette-color="primary" rx="1%" id="yte-0" data-palette-color="#61777f"></rect></g><g transform="matrix(1,0,0,1,177.02930153148787,0.5523101617792179)"><svg viewBox="0 0 243.80675248344374 220.92406471169463" height="220.92406471169463" width="243.80675248344374"><g id="textblocktransform"><svg viewBox="0 0 243.80675248344374 220.92406471169463" height="220.92406471169463" width="243.80675248344374" id="textblock"><g><svg viewBox="0 0 243.80675248344374 198.764" height="198.764" width="243.80675248344374"><g transform="matrix(1,0,0,1,0,0)"><svg width="243.80675248344374" viewBox="0.8090903681395527 -37.8 260.34716051076674 209.8" height="198.764" data-palette-color="#61777f"><svg></svg><svg></svg><svg></svg><svg></svg><g class="wordmark-text-0" data-fill-palette-color="primary" id="text-0"><path d="M10-16.85v14.35l4.85 1c0.1 0.633 0.017 1.217-0.25 1.75v0c-0.6-0.033-1.34-0.067-2.22-0.1-0.887-0.033-1.763-0.067-2.63-0.1-0.867-0.033-1.617-0.05-2.25-0.05v0c-0.933 0-1.95 0.027-3.05 0.08-1.1 0.047-2.117 0.103-3.05 0.17v0c-0.1-0.633-0.067-1.217 0.1-1.75v0c0.633-0.167 1.26-0.317 1.88-0.45 0.613-0.133 1.153-0.317 1.62-0.55v0-19.5l-4.15-0.4c-0.1-0.667-0.017-1.25 0.25-1.75v0c1.2-0.167 2.41-0.367 3.63-0.6 1.213-0.233 2.337-0.483 3.37-0.75v0c0.333 0.033 0.61 0.09 0.83 0.17 0.213 0.087 0.487 0.213 0.82 0.38v0 4.55l0.05 0.05c1.033-1.533 2.193-2.833 3.48-3.9 1.28-1.067 2.653-1.6 4.12-1.6v0c0.567 0 1.123 0.04 1.67 0.12 0.553 0.087 1.097 0.297 1.63 0.63v0c0.067 1.367 0.01 2.667-0.17 3.9-0.187 1.233-0.463 2.433-0.83 3.6v0c-0.233 0.033-0.6 0.043-1.1 0.03-0.5-0.02-0.883-0.097-1.15-0.23v0l-0.7-5c-1.167 0-2.34 0.423-3.52 1.27-1.187 0.853-2.263 2.413-3.23 4.68zM28.7-13.5v1c0 3.367 0.677 5.977 2.03 7.83 1.347 1.847 3.187 2.77 5.52 2.77v0c1.033 0 1.9-0.06 2.6-0.18 0.7-0.113 1.39-0.337 2.07-0.67 0.687-0.333 1.463-0.8 2.33-1.4v0c0.533 0.233 0.833 0.633 0.9 1.2v0c-1.033 1.2-2.267 2.133-3.7 2.8-1.433 0.667-2.883 1-4.35 1v0c-2.533 0-4.75-0.533-6.65-1.6-1.9-1.067-3.383-2.6-4.45-4.6-1.067-2-1.6-4.383-1.6-7.15v0c0-2.833 0.56-5.243 1.68-7.23 1.113-1.98 2.613-3.497 4.5-4.55 1.88-1.047 3.97-1.57 6.27-1.57v0c2.967 0 5.157 0.99 6.57 2.97 1.42 1.987 2.13 4.547 2.13 7.68v0c0 0.233 0 0.45 0 0.65 0 0.2-0.017 0.417-0.05 0.65v0l-0.7 0.55zM35.8-23.7v0c-0.967 0-1.927 0.3-2.88 0.9-0.947 0.6-1.787 1.5-2.52 2.7-0.733 1.2-1.233 2.717-1.5 4.55v0l10.9-0.6c0-2.567-0.273-4.467-0.82-5.7-0.553-1.233-1.613-1.85-3.18-1.85zM54.9 0.85v0c-2 0-3.683-0.527-5.05-1.58-1.367-1.047-2.05-2.637-2.05-4.77v0c0-1.667 0.407-3.033 1.22-4.1 0.82-1.067 1.92-1.893 3.3-2.48 1.387-0.58 2.93-0.97 4.63-1.17 1.7-0.2 3.433-0.283 5.2-0.25v0l0.05-4.4c0.033-1.867-0.317-3.31-1.05-4.33-0.733-1.013-1.85-1.52-3.35-1.52v0c-0.833 0-1.633 0.057-2.4 0.17-0.767 0.12-1.533 0.313-2.3 0.58v0l-0.65 5.3c-0.267 0.133-0.633 0.207-1.1 0.22-0.467 0.02-0.833 0.013-1.1-0.02v0c-0.3-1.1-0.55-2.2-0.75-3.3-0.2-1.1-0.283-2.167-0.25-3.2v0c1.567-0.733 3.14-1.25 4.72-1.55 1.587-0.3 3.313-0.45 5.18-0.45v0c1.867 0 3.373 0.3 4.52 0.9 1.153 0.6 2.003 1.633 2.55 3.1 0.553 1.467 0.83 3.517 0.83 6.15v0 13.4c0.567 0.267 1.15 0.457 1.75 0.57 0.6 0.12 1.183 0.263 1.75 0.43v0c0.1 0.633 0.017 1.217-0.25 1.75v0c-0.533 0.1-1.173 0.183-1.92 0.25-0.753 0.067-1.513 0.1-2.28 0.1v0c-1.1 0-2.05-0.1-2.85-0.3v0l-0.7-2.6h-0.2c-0.833 0.867-1.867 1.6-3.1 2.2-1.233 0.6-2.683 0.9-4.35 0.9zM56.8-1.9v0c0.933 0 1.933-0.293 3-0.88 1.067-0.58 1.85-1.237 2.35-1.97v0-6.75c-3.433 0-5.85 0.407-7.25 1.22-1.4 0.82-2.1 2.247-2.1 4.28v0c0 1.367 0.367 2.39 1.1 3.07 0.733 0.687 1.7 1.03 2.9 1.03zM80.55-37.25v34.75l3.85 1c0.1 0.633 0.017 1.217-0.25 1.75v0c-0.9-0.067-1.907-0.123-3.02-0.17-1.12-0.053-2.147-0.08-3.08-0.08v0c-0.933 0-1.95 0.027-3.05 0.08-1.1 0.047-2.117 0.103-3.05 0.17v0c-0.1-0.633-0.067-1.217 0.1-1.75v0c0.633-0.167 1.257-0.317 1.87-0.45 0.62-0.133 1.163-0.317 1.63-0.55v0-31.8l-4.15-0.4c-0.1-0.667-0.017-1.25 0.25-1.75v0c1.2-0.167 2.407-0.367 3.62-0.6 1.22-0.233 2.347-0.483 3.38-0.75v0c0.333 0.033 0.65 0.09 0.95 0.17 0.3 0.087 0.617 0.213 0.95 0.38zM107.05 0.8v0c-1.067 0-2.033-0.2-2.9-0.6-0.867-0.4-1.54-1.093-2.02-2.08-0.487-0.98-0.73-2.337-0.73-4.07v0-15.95h-3.5c-0.2-0.367-0.307-0.743-0.32-1.13-0.02-0.38 0.003-0.753 0.07-1.12v0c1.4 0 2.45-0.183 3.15-0.55 0.7-0.367 1.243-1 1.63-1.9 0.38-0.9 0.787-2.117 1.22-3.65v0h2.65v5.6h5.25c0.467 0.967 0.467 1.883 0 2.75v0h-5.25v14.7c0 1.533 0.077 2.69 0.23 3.47 0.147 0.787 0.403 1.32 0.77 1.6 0.367 0.287 0.867 0.43 1.5 0.43v0c0.533 0 1.05-0.1 1.55-0.3 0.5-0.2 0.983-0.433 1.45-0.7v0c0.467 0.3 0.717 0.8 0.75 1.5v0c-0.367 0.433-1.033 0.877-2 1.33-0.967 0.447-2.133 0.67-3.5 0.67zM123.25-24.95v22.45l3.35 1c0.1 0.633 0.017 1.217-0.25 1.75v0c-0.9-0.067-1.823-0.123-2.77-0.17-0.953-0.053-1.897-0.08-2.83-0.08v0c-0.933 0-1.95 0.027-3.05 0.08-1.1 0.047-2.117 0.103-3.05 0.17v0c-0.1-0.633-0.067-1.217 0.1-1.75v0c0.633-0.167 1.26-0.317 1.88-0.45 0.613-0.133 1.153-0.317 1.62-0.55v0-19.5l-4.15-0.4c-0.1-0.667-0.017-1.25 0.25-1.75v0c1.2-0.167 2.41-0.367 3.63-0.6 1.213-0.233 2.337-0.483 3.37-0.75v0c0.333 0.033 0.65 0.09 0.95 0.17 0.3 0.087 0.617 0.213 0.95 0.38zM119.9-30.05v0c-0.567 0-1.083-0.183-1.55-0.55-0.467-0.367-0.833-0.817-1.1-1.35-0.267-0.533-0.4-1.033-0.4-1.5v0c0-0.433 0.183-0.873 0.55-1.32 0.367-0.453 0.827-0.84 1.38-1.16 0.547-0.313 1.087-0.47 1.62-0.47v0c0.6 0 1.133 0.19 1.6 0.57 0.467 0.387 0.827 0.837 1.08 1.35 0.247 0.52 0.37 1.013 0.37 1.48v0c0 0.433-0.173 0.883-0.52 1.35-0.353 0.467-0.803 0.85-1.35 1.15-0.553 0.3-1.113 0.45-1.68 0.45zM137.3-25.05l-0.15 3.4 0.05 0.05c1.533-1.6 3.1-2.7 4.7-3.3 1.6-0.6 3-0.9 4.2-0.9v0c1.633 0 3.017 0.357 4.15 1.07 1.133 0.72 1.933 1.763 2.4 3.13v0c1.433-1.6 2.85-2.7 4.25-3.3 1.4-0.6 2.8-0.9 4.2-0.9v0c2.167 0 3.877 0.617 5.13 1.85 1.247 1.233 1.87 3.033 1.87 5.4v0l0.05 16.05 3.5 1c0.1 0.633 0.017 1.217-0.25 1.75v0c-0.9-0.067-1.85-0.123-2.85-0.17-1-0.053-1.967-0.08-2.9-0.08v0c-0.933 0-1.917 0.027-2.95 0.08-1.033 0.047-2.017 0.103-2.95 0.17v0c-0.1-0.633-0.067-1.217 0.1-1.75v0c0.667-0.133 1.26-0.283 1.78-0.45 0.513-0.167 1.02-0.35 1.52-0.55v0-13.8c0-2.267-0.35-3.817-1.05-4.65-0.7-0.833-1.817-1.25-3.35-1.25v0c-0.733 0-1.6 0.24-2.6 0.72-1 0.487-2.017 1.33-3.05 2.53v0 0.4l0.05 16.05 3.5 1c0.1 0.633 0.017 1.217-0.25 1.75v0c-0.9-0.067-1.85-0.123-2.85-0.17-1-0.053-1.967-0.08-2.9-0.08v0c-0.933 0-1.917 0.027-2.95 0.08-1.033 0.047-2.017 0.103-2.95 0.17v0c-0.1-0.633-0.067-1.217 0.1-1.75v0c0.667-0.133 1.26-0.283 1.78-0.45 0.513-0.167 1.02-0.35 1.52-0.55v0-13.8c0-2.267-0.35-3.833-1.05-4.7-0.7-0.867-1.817-1.3-3.35-1.3v0c-0.8 0-1.74 0.24-2.82 0.72-1.087 0.487-2.213 1.247-3.38 2.28v0 16.8l3.35 1c0.1 0.633 0.017 1.217-0.25 1.75v0c-0.9-0.067-1.823-0.123-2.77-0.17-0.953-0.053-1.897-0.08-2.83-0.08v0c-0.933 0-1.95 0.027-3.05 0.08-1.1 0.047-2.117 0.103-3.05 0.17v0c-0.1-0.633-0.067-1.217 0.1-1.75v0c0.6-0.167 1.2-0.327 1.8-0.48 0.6-0.147 1.167-0.32 1.7-0.52v0-19.5l-4.15-0.4c-0.1-0.667-0.017-1.25 0.25-1.75v0c1.233-0.2 2.433-0.417 3.6-0.65 1.167-0.233 2.283-0.467 3.35-0.7v0c0.567 0.033 1.133 0.183 1.7 0.45zM179.25-13.5v1c0 3.367 0.677 5.977 2.03 7.83 1.347 1.847 3.187 2.77 5.52 2.77v0c1.033 0 1.9-0.06 2.6-0.18 0.7-0.113 1.393-0.337 2.08-0.67 0.68-0.333 1.453-0.8 2.32-1.4v0c0.533 0.233 0.833 0.633 0.9 1.2v0c-1.033 1.2-2.267 2.133-3.7 2.8-1.433 0.667-2.883 1-4.35 1v0c-2.533 0-4.75-0.533-6.65-1.6-1.9-1.067-3.383-2.6-4.45-4.6-1.067-2-1.6-4.383-1.6-7.15v0c0-2.833 0.56-5.243 1.68-7.23 1.113-1.98 2.613-3.497 4.5-4.55 1.88-1.047 3.97-1.57 6.27-1.57v0c2.967 0 5.16 0.99 6.58 2.97 1.413 1.987 2.12 4.547 2.12 7.68v0c0 0.233 0 0.45 0 0.65 0 0.2-0.017 0.417-0.05 0.65v0l-0.7 0.55zM186.35-23.7v0c-0.967 0-1.923 0.3-2.87 0.9-0.953 0.6-1.797 1.5-2.53 2.7-0.733 1.2-1.233 2.717-1.5 4.55v0l10.9-0.6c0-2.567-0.273-4.467-0.82-5.7-0.553-1.233-1.613-1.85-3.18-1.85z" fill="#000000" fill-rule="nonzero" stroke="none" stroke-width="1" stroke-linecap="butt" stroke-linejoin="miter" stroke-miterlimit="10" stroke-dasharray="" stroke-dashoffset="0" font-family="none" font-weight="none" font-size="none" text-anchor="none" style="mix-blend-mode: normal" data-fill-palette-color="primary" opacity="1"></path><path transform="translate(0,52.85)" d="M19.5-17.7l-0.65-5.3c-0.5-0.233-1.107-0.41-1.82-0.53-0.72-0.113-1.363-0.17-1.93-0.17v0c-1.767 0-3.233 0.473-4.4 1.42-1.167 0.953-2.04 2.273-2.62 3.96-0.587 1.68-0.88 3.62-0.88 5.82v0c0 2.5 0.34 4.533 1.02 6.1 0.687 1.567 1.607 2.717 2.76 3.45 1.147 0.733 2.42 1.1 3.82 1.1v0c1.1 0 2.243-0.21 3.43-0.63 1.18-0.413 2.337-0.987 3.47-1.72v0c0.267 0.167 0.467 0.357 0.6 0.57 0.133 0.22 0.233 0.463 0.3 0.73v0c-1.233 1.3-2.59 2.25-4.07 2.85-1.487 0.6-2.98 0.9-4.48 0.9v0c-2.067 0-4.033-0.517-5.9-1.55-1.867-1.033-3.383-2.55-4.55-4.55-1.167-2-1.75-4.417-1.75-7.25v0c0-2.933 0.593-5.393 1.78-7.38 1.18-1.98 2.77-3.48 4.77-4.5 2-1.013 4.183-1.52 6.55-1.52v0c1.267 0 2.55 0.123 3.85 0.37 1.3 0.253 2.6 0.663 3.9 1.23v0c0 2.467-0.333 4.733-1 6.8v0c-0.133 0.033-0.267 0.05-0.4 0.05-0.133 0-0.267 0-0.4 0v0c-0.233 0-0.467-0.017-0.7-0.05-0.233-0.033-0.467-0.1-0.7-0.2zM26-12.5v0c0-2.6 0.51-4.917 1.53-6.95 1.013-2.033 2.47-3.633 4.37-4.8 1.9-1.167 4.133-1.75 6.7-1.75v0c2.6 0 4.843 0.583 6.73 1.75 1.88 1.167 3.33 2.767 4.35 4.8 1.013 2.033 1.52 4.35 1.52 6.95v0c0 2.667-0.507 5.017-1.52 7.05-1.02 2.033-2.47 3.617-4.35 4.75-1.887 1.133-4.13 1.7-6.73 1.7v0c-2.567 0-4.8-0.567-6.7-1.7-1.9-1.133-3.357-2.717-4.37-4.75-1.02-2.033-1.53-4.383-1.53-7.05zM45.8-11.8v0c0-2.233-0.25-4.26-0.75-6.08-0.5-1.813-1.283-3.263-2.35-4.35-1.067-1.08-2.467-1.62-4.2-1.62v0c-1.767 0-3.173 0.533-4.22 1.6-1.053 1.067-1.797 2.483-2.23 4.25-0.433 1.767-0.65 3.717-0.65 5.85v0c0 1.933 0.25 3.74 0.75 5.42 0.5 1.687 1.293 3.037 2.38 4.05 1.08 1.02 2.47 1.53 4.17 1.53v0c1.8 0 3.217-0.5 4.25-1.5 1.033-1 1.767-2.317 2.2-3.95 0.433-1.633 0.65-3.367 0.65-5.2zM62.75-25.05l-0.15 3.4 0.05 0.05c1.533-1.6 3.1-2.7 4.7-3.3 1.6-0.6 3-0.9 4.2-0.9v0c1.633 0 3.017 0.357 4.15 1.07 1.133 0.72 1.933 1.763 2.4 3.13v0c1.433-1.6 2.85-2.7 4.25-3.3 1.4-0.6 2.8-0.9 4.2-0.9v0c2.167 0 3.877 0.617 5.13 1.85 1.247 1.233 1.87 3.033 1.87 5.4v0l0.05 16.05 3.5 1c0.1 0.633 0.017 1.217-0.25 1.75v0c-0.9-0.067-1.85-0.123-2.85-0.17-1-0.053-1.967-0.08-2.9-0.08v0c-0.933 0-1.917 0.027-2.95 0.08-1.033 0.047-2.017 0.103-2.95 0.17v0c-0.1-0.633-0.067-1.217 0.1-1.75v0c0.667-0.133 1.26-0.283 1.78-0.45 0.513-0.167 1.02-0.35 1.52-0.55v0-13.8c0-2.267-0.35-3.817-1.05-4.65-0.7-0.833-1.817-1.25-3.35-1.25v0c-0.733 0-1.6 0.24-2.6 0.72-1 0.487-2.017 1.33-3.05 2.53v0 0.4l0.05 16.05 3.5 1c0.1 0.633 0.017 1.217-0.25 1.75v0c-0.9-0.067-1.85-0.123-2.85-0.17-1-0.053-1.967-0.08-2.9-0.08v0c-0.933 0-1.917 0.027-2.95 0.08-1.033 0.047-2.017 0.103-2.95 0.17v0c-0.1-0.633-0.067-1.217 0.1-1.75v0c0.667-0.133 1.26-0.283 1.78-0.45 0.513-0.167 1.02-0.35 1.52-0.55v0-13.8c0-2.267-0.35-3.833-1.05-4.7-0.7-0.867-1.817-1.3-3.35-1.3v0c-0.8 0-1.74 0.24-2.82 0.72-1.087 0.487-2.213 1.247-3.38 2.28v0 16.8l3.35 1c0.1 0.633 0.017 1.217-0.25 1.75v0c-0.9-0.067-1.823-0.123-2.77-0.17-0.953-0.053-1.897-0.08-2.83-0.08v0c-0.933 0-1.95 0.027-3.05 0.08-1.1 0.047-2.117 0.103-3.05 0.17v0c-0.1-0.633-0.067-1.217 0.1-1.75v0c0.6-0.167 1.2-0.327 1.8-0.48 0.6-0.147 1.167-0.32 1.7-0.52v0-19.5l-4.15-0.4c-0.1-0.667-0.017-1.25 0.25-1.75v0c1.233-0.2 2.433-0.417 3.6-0.65 1.167-0.233 2.283-0.467 3.35-0.7v0c0.567 0.033 1.133 0.183 1.7 0.45zM107.3-25.05l-0.15 3.4 0.05 0.05c1.533-1.6 3.1-2.7 4.7-3.3 1.6-0.6 3-0.9 4.2-0.9v0c1.633 0 3.017 0.357 4.15 1.07 1.133 0.72 1.933 1.763 2.4 3.13v0c1.433-1.6 2.85-2.7 4.25-3.3 1.4-0.6 2.8-0.9 4.2-0.9v0c2.167 0 3.877 0.617 5.13 1.85 1.247 1.233 1.87 3.033 1.87 5.4v0l0.05 16.05 3.5 1c0.1 0.633 0.017 1.217-0.25 1.75v0c-0.9-0.067-1.85-0.123-2.85-0.17-1-0.053-1.967-0.08-2.9-0.08v0c-0.933 0-1.917 0.027-2.95 0.08-1.033 0.047-2.017 0.103-2.95 0.17v0c-0.1-0.633-0.067-1.217 0.1-1.75v0c0.667-0.133 1.26-0.283 1.78-0.45 0.513-0.167 1.02-0.35 1.52-0.55v0-13.8c0-2.267-0.35-3.817-1.05-4.65-0.7-0.833-1.817-1.25-3.35-1.25v0c-0.733 0-1.6 0.24-2.6 0.72-1 0.487-2.017 1.33-3.05 2.53v0 0.4l0.05 16.05 3.5 1c0.1 0.633 0.017 1.217-0.25 1.75v0c-0.9-0.067-1.85-0.123-2.85-0.17-1-0.053-1.967-0.08-2.9-0.08v0c-0.933 0-1.917 0.027-2.95 0.08-1.033 0.047-2.017 0.103-2.95 0.17v0c-0.1-0.633-0.067-1.217 0.1-1.75v0c0.667-0.133 1.26-0.283 1.78-0.45 0.513-0.167 1.02-0.35 1.52-0.55v0-13.8c0-2.267-0.35-3.833-1.05-4.7-0.7-0.867-1.817-1.3-3.35-1.3v0c-0.8 0-1.74 0.24-2.82 0.72-1.087 0.487-2.213 1.247-3.38 2.28v0 16.8l3.35 1c0.1 0.633 0.017 1.217-0.25 1.75v0c-0.9-0.067-1.823-0.123-2.77-0.17-0.953-0.053-1.897-0.08-2.83-0.08v0c-0.933 0-1.95 0.027-3.05 0.08-1.1 0.047-2.117 0.103-3.05 0.17v0c-0.1-0.633-0.067-1.217 0.1-1.75v0c0.6-0.167 1.2-0.327 1.8-0.48 0.6-0.147 1.167-0.32 1.7-0.52v0-19.5l-4.15-0.4c-0.1-0.667-0.017-1.25 0.25-1.75v0c1.233-0.2 2.433-0.417 3.6-0.65 1.167-0.233 2.283-0.467 3.35-0.7v0c0.567 0.033 1.133 0.183 1.7 0.45zM167.25-24.95v22.55c0.567 0.333 1.15 0.55 1.75 0.65 0.6 0.1 1.183 0.217 1.75 0.35v0c0.1 0.6 0.017 1.183-0.25 1.75v0c-0.533 0.1-1.157 0.183-1.87 0.25-0.72 0.067-1.463 0.1-2.23 0.1v0c-1.067 0-2-0.1-2.8-0.3v0l-0.85-3.7h-0.25c-1.7 1.533-3.273 2.6-4.72 3.2-1.453 0.6-3.03 0.9-4.73 0.9v0c-2.4 0-4.123-0.667-5.17-2-1.053-1.333-1.58-3.167-1.58-5.5v0-15.3l-3.65-0.4c-0.1-0.667-0.017-1.25 0.25-1.75v0c1.2-0.167 2.327-0.367 3.38-0.6 1.047-0.233 2.087-0.483 3.12-0.75v0c0.333 0.033 0.65 0.09 0.95 0.17 0.3 0.087 0.617 0.213 0.95 0.38v0 17.5c0 1.4 0.21 2.433 0.63 3.1 0.413 0.667 0.97 1.107 1.67 1.32 0.7 0.22 1.5 0.33 2.4 0.33v0c1.067 0 2.183-0.317 3.35-0.95 1.167-0.633 2.133-1.383 2.9-2.25v0-16.1l-3.65-0.4c-0.1-0.667-0.017-1.25 0.25-1.75v0c1.2-0.167 2.327-0.367 3.38-0.6 1.047-0.233 2.087-0.483 3.12-0.75v0c0.333 0.033 0.65 0.09 0.95 0.17 0.3 0.087 0.617 0.213 0.95 0.38zM181.35-25.05l-0.15 3.4 0.05 0.05c1.6-1.6 3.25-2.7 4.95-3.3 1.7-0.6 3.183-0.9 4.45-0.9v0c2.167 0 3.877 0.617 5.13 1.85 1.247 1.233 1.87 3.033 1.87 5.4v0l0.05 16.05 3.5 1c0.1 0.633 0.017 1.217-0.25 1.75v0c-0.9-0.067-1.85-0.123-2.85-0.17-1-0.053-1.967-0.08-2.9-0.08v0c-0.933 0-1.917 0.027-2.95 0.08-1.033 0.047-2.017 0.103-2.95 0.17v0c-0.1-0.633-0.067-1.217 0.1-1.75v0c0.667-0.133 1.26-0.283 1.78-0.45 0.513-0.167 1.02-0.35 1.52-0.55v0-13.8c0-2.267-0.35-3.833-1.05-4.7-0.7-0.867-1.817-1.3-3.35-1.3v0c-1.233 0-2.433 0.24-3.6 0.72-1.167 0.487-2.2 1.247-3.1 2.28v0 16.8l3.35 1c0.1 0.633 0.017 1.217-0.25 1.75v0c-0.9-0.067-1.823-0.123-2.77-0.17-0.953-0.053-1.897-0.08-2.83-0.08v0c-0.933 0-1.95 0.027-3.05 0.08-1.1 0.047-2.117 0.103-3.05 0.17v0c-0.1-0.633-0.067-1.217 0.1-1.75v0c0.6-0.167 1.2-0.327 1.8-0.48 0.6-0.147 1.167-0.32 1.7-0.52v0-19.5l-4.15-0.4c-0.1-0.667-0.017-1.25 0.25-1.75v0c1.233-0.2 2.433-0.417 3.6-0.65 1.167-0.233 2.283-0.467 3.35-0.7v0c0.567 0.033 1.133 0.183 1.7 0.45zM211.95-24.95v22.45l3.35 1c0.1 0.633 0.017 1.217-0.25 1.75v0c-0.9-0.067-1.823-0.123-2.77-0.17-0.953-0.053-1.897-0.08-2.83-0.08v0c-0.933 0-1.95 0.027-3.05 0.08-1.1 0.047-2.117 0.103-3.05 0.17v0c-0.1-0.633-0.067-1.217 0.1-1.75v0c0.633-0.167 1.26-0.317 1.88-0.45 0.613-0.133 1.153-0.317 1.62-0.55v0-19.5l-4.15-0.4c-0.1-0.667-0.017-1.25 0.25-1.75v0c1.2-0.167 2.41-0.367 3.63-0.6 1.213-0.233 2.337-0.483 3.37-0.75v0c0.333 0.033 0.65 0.09 0.95 0.17 0.3 0.087 0.617 0.213 0.95 0.38zM208.6-30.05v0c-0.567 0-1.083-0.183-1.55-0.55-0.467-0.367-0.833-0.817-1.1-1.35-0.267-0.533-0.4-1.033-0.4-1.5v0c0-0.433 0.183-0.873 0.55-1.32 0.367-0.453 0.827-0.84 1.38-1.16 0.547-0.313 1.087-0.47 1.62-0.47v0c0.6 0 1.133 0.19 1.6 0.57 0.467 0.387 0.827 0.837 1.08 1.35 0.247 0.52 0.37 1.013 0.37 1.48v0c0 0.433-0.173 0.883-0.52 1.35-0.353 0.467-0.803 0.85-1.35 1.15-0.553 0.3-1.113 0.45-1.68 0.45zM226.4 0.8v0c-1.067 0-2.033-0.2-2.9-0.6-0.867-0.4-1.54-1.093-2.02-2.08-0.487-0.98-0.73-2.337-0.73-4.07v0-15.95h-3.5c-0.2-0.367-0.307-0.743-0.32-1.13-0.02-0.38 0.003-0.753 0.07-1.12v0c1.4 0 2.45-0.183 3.15-0.55 0.7-0.367 1.243-1 1.63-1.9 0.38-0.9 0.787-2.117 1.22-3.65v0h2.65v5.6h5.25c0.467 0.967 0.467 1.883 0 2.75v0h-5.25v14.7c0 1.533 0.077 2.69 0.23 3.47 0.147 0.787 0.403 1.32 0.77 1.6 0.367 0.287 0.867 0.43 1.5 0.43v0c0.533 0 1.05-0.1 1.55-0.3 0.5-0.2 0.983-0.433 1.45-0.7v0c0.467 0.3 0.717 0.8 0.75 1.5v0c-0.367 0.433-1.033 0.877-2 1.33-0.967 0.447-2.133 0.67-3.5 0.67zM237.95 13.45v0c-0.567-0.867-1.14-1.867-1.72-3-0.587-1.133-0.963-2.267-1.13-3.4v0c0.2-0.167 0.493-0.323 0.88-0.47 0.38-0.153 0.72-0.23 1.02-0.23v0l3.2 3.75c0.9-0.867 1.827-2.173 2.78-3.92 0.947-1.753 1.837-3.747 2.67-5.98v0l-9.1-22.7-3.85-1c-0.1-0.633-0.017-1.217 0.25-1.75v0c0.9 0.033 1.877 0.083 2.93 0.15 1.047 0.067 2.037 0.1 2.97 0.1v0c0.967 0 2.01-0.033 3.13-0.1 1.113-0.067 2.137-0.117 3.07-0.15v0c0.1 0.633 0.067 1.217-0.1 1.75v0c-0.6 0.133-1.19 0.267-1.77 0.4-0.587 0.133-1.147 0.333-1.68 0.6v0l4.15 10.05c0.167 0.4 0.417 1.007 0.75 1.82 0.333 0.82 0.667 1.747 1 2.78 0.333 1.033 0.6 2.083 0.8 3.15v0h0.15c0.2-0.767 0.417-1.66 0.65-2.68 0.233-1.013 0.667-2.337 1.3-3.97v0l4.25-11.15-3.45-1c-0.1-0.633-0.017-1.217 0.25-1.75v0c0.9 0.033 1.71 0.083 2.43 0.15 0.713 0.067 1.537 0.1 2.47 0.1v0c0.967 0 1.783-0.033 2.45-0.1 0.667-0.067 1.467-0.117 2.4-0.15v0c0.1 0.633 0.067 1.217-0.1 1.75v0c-0.6 0.133-1.207 0.267-1.82 0.4-0.62 0.133-1.163 0.333-1.63 0.6v0l-9.8 24.85c-0.867 2.2-1.833 4.133-2.9 5.8-1.067 1.667-2.183 2.967-3.35 3.9-1.167 0.933-2.35 1.4-3.55 1.4z" fill="#000000" fill-rule="nonzero" stroke="none" stroke-width="1" stroke-linecap="butt" stroke-linejoin="miter" stroke-miterlimit="10" stroke-dasharray="" stroke-dashoffset="0" font-family="none" font-weight="none" font-size="none" text-anchor="none" style="mix-blend-mode: normal" data-fill-palette-color="primary" opacity="1"></path><path transform="translate(0,105.7)" d="M8.6 0.85v0c-2 0-3.683-0.527-5.05-1.58-1.367-1.047-2.05-2.637-2.05-4.77v0c0-1.667 0.41-3.033 1.23-4.1 0.813-1.067 1.913-1.893 3.3-2.48 1.38-0.58 2.92-0.97 4.62-1.17 1.7-0.2 3.433-0.283 5.2-0.25v0l0.05-4.4c0.033-1.867-0.317-3.31-1.05-4.33-0.733-1.013-1.85-1.52-3.35-1.52v0c-0.833 0-1.633 0.057-2.4 0.17-0.767 0.12-1.533 0.313-2.3 0.58v0l-0.65 5.3c-0.267 0.133-0.633 0.207-1.1 0.22-0.467 0.02-0.833 0.013-1.1-0.02v0c-0.3-1.1-0.55-2.2-0.75-3.3-0.2-1.1-0.283-2.167-0.25-3.2v0c1.567-0.733 3.143-1.25 4.73-1.55 1.58-0.3 3.303-0.45 5.17-0.45v0c1.867 0 3.377 0.3 4.53 0.9 1.147 0.6 1.997 1.633 2.55 3.1 0.547 1.467 0.82 3.517 0.82 6.15v0 13.4c0.567 0.267 1.15 0.457 1.75 0.57 0.6 0.12 1.183 0.263 1.75 0.43v0c0.1 0.633 0.017 1.217-0.25 1.75v0c-0.533 0.1-1.173 0.183-1.92 0.25-0.753 0.067-1.513 0.1-2.28 0.1v0c-1.1 0-2.05-0.1-2.85-0.3v0l-0.7-2.6h-0.2c-0.833 0.867-1.867 1.6-3.1 2.2-1.233 0.6-2.683 0.9-4.35 0.9zM10.5-1.9v0c0.933 0 1.933-0.293 3-0.88 1.067-0.58 1.85-1.237 2.35-1.97v0-6.75c-3.433 0-5.85 0.407-7.25 1.22-1.4 0.82-2.1 2.247-2.1 4.28v0c0 1.367 0.367 2.39 1.1 3.07 0.733 0.687 1.7 1.03 2.9 1.03zM34.25-37.25v34.75l3.85 1c0.1 0.633 0.017 1.217-0.25 1.75v0c-0.9-0.067-1.907-0.123-3.02-0.17-1.12-0.053-2.147-0.08-3.08-0.08v0c-0.933 0-1.95 0.027-3.05 0.08-1.1 0.047-2.117 0.103-3.05 0.17v0c-0.1-0.633-0.067-1.217 0.1-1.75v0c0.633-0.167 1.26-0.317 1.88-0.45 0.613-0.133 1.153-0.317 1.62-0.55v0-31.8l-4.15-0.4c-0.1-0.667-0.017-1.25 0.25-1.75v0c1.2-0.167 2.41-0.367 3.63-0.6 1.213-0.233 2.337-0.483 3.37-0.75v0c0.333 0.033 0.65 0.09 0.95 0.17 0.3 0.087 0.617 0.213 0.95 0.38zM45.9-13.5v1c0 3.367 0.673 5.977 2.02 7.83 1.353 1.847 3.197 2.77 5.53 2.77v0c1.033 0 1.9-0.06 2.6-0.18 0.7-0.113 1.393-0.337 2.08-0.67 0.68-0.333 1.453-0.8 2.32-1.4v0c0.533 0.233 0.833 0.633 0.9 1.2v0c-1.033 1.2-2.267 2.133-3.7 2.8-1.433 0.667-2.883 1-4.35 1v0c-2.533 0-4.75-0.533-6.65-1.6-1.9-1.067-3.383-2.6-4.45-4.6-1.067-2-1.6-4.383-1.6-7.15v0c0-2.833 0.557-5.243 1.67-7.23 1.12-1.98 2.62-3.497 4.5-4.55 1.887-1.047 3.98-1.57 6.28-1.57v0c2.967 0 5.16 0.99 6.58 2.97 1.413 1.987 2.12 4.547 2.12 7.68v0c0 0.233 0 0.45 0 0.65 0 0.2-0.017 0.417-0.05 0.65v0l-0.7 0.55zM53-23.7v0c-0.967 0-1.923 0.3-2.87 0.9-0.953 0.6-1.797 1.5-2.53 2.7-0.733 1.2-1.233 2.717-1.5 4.55v0l10.9-0.6c0-2.567-0.277-4.467-0.83-5.7-0.547-1.233-1.603-1.85-3.17-1.85zM73.5-16.85v14.35l4.85 1c0.1 0.633 0.017 1.217-0.25 1.75v0c-0.6-0.033-1.34-0.067-2.22-0.1-0.887-0.033-1.763-0.067-2.63-0.1-0.867-0.033-1.617-0.05-2.25-0.05v0c-0.933 0-1.95 0.027-3.05 0.08-1.1 0.047-2.117 0.103-3.05 0.17v0c-0.1-0.633-0.067-1.217 0.1-1.75v0c0.633-0.167 1.26-0.317 1.88-0.45 0.613-0.133 1.153-0.317 1.62-0.55v0-19.5l-4.15-0.4c-0.1-0.667-0.017-1.25 0.25-1.75v0c1.2-0.167 2.407-0.367 3.62-0.6 1.22-0.233 2.347-0.483 3.38-0.75v0c0.333 0.033 0.607 0.09 0.82 0.17 0.22 0.087 0.497 0.213 0.83 0.38v0 4.55l0.05 0.05c1.033-1.533 2.193-2.833 3.48-3.9 1.28-1.067 2.653-1.6 4.12-1.6v0c0.567 0 1.127 0.04 1.68 0.12 0.547 0.087 1.087 0.297 1.62 0.63v0c0.067 1.367 0.01 2.667-0.17 3.9-0.187 1.233-0.463 2.433-0.83 3.6v0c-0.233 0.033-0.6 0.043-1.1 0.03-0.5-0.02-0.883-0.097-1.15-0.23v0l-0.7-5c-1.167 0-2.343 0.423-3.53 1.27-1.18 0.853-2.253 2.413-3.22 4.68zM95.2 0.8v0c-1.067 0-2.033-0.2-2.9-0.6-0.867-0.4-1.543-1.093-2.03-2.08-0.48-0.98-0.72-2.337-0.72-4.07v0-15.95h-3.5c-0.2-0.367-0.31-0.743-0.33-1.13-0.013-0.38 0.013-0.753 0.08-1.12v0c1.4 0 2.45-0.183 3.15-0.55 0.7-0.367 1.243-1 1.63-1.9 0.38-0.9 0.787-2.117 1.22-3.65v0h2.65v5.6h5.25c0.467 0.967 0.467 1.883 0 2.75v0h-5.25v14.7c0 1.533 0.073 2.69 0.22 3.47 0.153 0.787 0.413 1.32 0.78 1.6 0.367 0.287 0.867 0.43 1.5 0.43v0c0.533 0 1.05-0.1 1.55-0.3 0.5-0.2 0.983-0.433 1.45-0.7v0c0.467 0.3 0.717 0.8 0.75 1.5v0c-0.367 0.433-1.033 0.877-2 1.33-0.967 0.447-2.133 0.67-3.5 0.67z" fill="#000000" fill-rule="nonzero" stroke="none" stroke-width="1" stroke-linecap="butt" stroke-linejoin="miter" stroke-miterlimit="10" stroke-dasharray="" stroke-dashoffset="0" font-family="none" font-weight="none" font-size="none" text-anchor="none" style="mix-blend-mode: normal" data-fill-palette-color="primary" opacity="1"></path><path transform="translate(0,158.55)" d="M4.95-7.5l0.5 5.3c0.7 0.333 1.41 0.567 2.13 0.7 0.713 0.133 1.52 0.2 2.42 0.2v0c1.367 0 2.583-0.3 3.65-0.9 1.067-0.6 1.6-1.567 1.6-2.9v0c0-0.7-0.19-1.35-0.57-1.95-0.387-0.6-1.053-1.217-2-1.85-0.953-0.633-2.313-1.35-4.08-2.15v0c-1.933-0.9-3.433-1.943-4.5-3.13-1.067-1.18-1.6-2.82-1.6-4.92v0c0-1.7 0.427-3.043 1.28-4.03 0.847-0.98 1.947-1.687 3.3-2.12 1.347-0.433 2.77-0.65 4.27-0.65v0c1.3 0 2.593 0.123 3.88 0.37 1.28 0.253 2.42 0.597 3.42 1.03v0c0 0.167 0.01 0.35 0.03 0.55 0.013 0.2 0.02 0.383 0.02 0.55v0c0 2.033-0.317 3.95-0.95 5.75v0c-0.133 0.033-0.257 0.06-0.37 0.08-0.12 0.013-0.247 0.02-0.38 0.02v0c-0.5 0-1-0.1-1.5-0.3v0l-0.8-5.4c-0.433-0.133-0.933-0.243-1.5-0.33-0.567-0.08-1.133-0.12-1.7-0.12v0c-0.767 0-1.527 0.107-2.28 0.32-0.747 0.22-1.36 0.587-1.84 1.1-0.487 0.52-0.73 1.247-0.73 2.18v0c0 0.633 0.143 1.233 0.43 1.8 0.28 0.567 0.847 1.157 1.7 1.77 0.847 0.62 2.12 1.347 3.82 2.18v0c2.667 1.267 4.543 2.49 5.63 3.67 1.08 1.187 1.62 2.663 1.62 4.43v0c0 1.7-0.45 3.083-1.35 4.15-0.9 1.067-2.073 1.85-3.52 2.35-1.453 0.5-2.997 0.75-4.63 0.75v0c-1.567 0-3.023-0.123-4.37-0.37-1.353-0.253-2.713-0.797-4.08-1.63v0-0.85c0-0.9 0.06-1.827 0.18-2.78 0.113-0.947 0.353-1.97 0.72-3.07v0c0.2-0.033 0.367-0.05 0.5-0.05v0c0.6 0 1.15 0.083 1.65 0.25zM27.15 13.45v0c-0.567-0.867-1.14-1.867-1.72-3-0.587-1.133-0.963-2.267-1.13-3.4v0c0.2-0.167 0.493-0.323 0.88-0.47 0.38-0.153 0.72-0.23 1.02-0.23v0l3.2 3.75c0.9-0.867 1.827-2.173 2.78-3.92 0.947-1.753 1.837-3.747 2.67-5.98v0l-9.1-22.7-3.85-1c-0.1-0.633-0.017-1.217 0.25-1.75v0c0.9 0.033 1.877 0.083 2.93 0.15 1.047 0.067 2.037 0.1 2.97 0.1v0c0.967 0 2.01-0.033 3.13-0.1 1.113-0.067 2.137-0.117 3.07-0.15v0c0.1 0.633 0.067 1.217-0.1 1.75v0c-0.6 0.133-1.19 0.267-1.77 0.4-0.587 0.133-1.147 0.333-1.68 0.6v0l4.15 10.05c0.167 0.4 0.417 1.007 0.75 1.82 0.333 0.82 0.667 1.747 1 2.78 0.333 1.033 0.6 2.083 0.8 3.15v0h0.15c0.2-0.767 0.417-1.66 0.65-2.68 0.233-1.013 0.667-2.337 1.3-3.97v0l4.25-11.15-3.45-1c-0.1-0.633-0.017-1.217 0.25-1.75v0c0.9 0.033 1.71 0.083 2.43 0.15 0.713 0.067 1.537 0.1 2.47 0.1v0c0.967 0 1.783-0.033 2.45-0.1 0.667-0.067 1.467-0.117 2.4-0.15v0c0.1 0.633 0.067 1.217-0.1 1.75v0c-0.6 0.133-1.207 0.267-1.82 0.4-0.62 0.133-1.163 0.333-1.63 0.6v0l-9.8 24.85c-0.867 2.2-1.833 4.133-2.9 5.8-1.067 1.667-2.183 2.967-3.35 3.9-1.167 0.933-2.35 1.4-3.55 1.4zM55.2-7.5l0.5 5.3c0.7 0.333 1.41 0.567 2.13 0.7 0.713 0.133 1.52 0.2 2.42 0.2v0c1.367 0 2.583-0.3 3.65-0.9 1.067-0.6 1.6-1.567 1.6-2.9v0c0-0.7-0.193-1.35-0.58-1.95-0.38-0.6-1.047-1.217-2-1.85-0.947-0.633-2.303-1.35-4.07-2.15v0c-1.933-0.9-3.433-1.943-4.5-3.13-1.067-1.18-1.6-2.82-1.6-4.92v0c0-1.7 0.423-3.043 1.27-4.03 0.853-0.98 1.957-1.687 3.31-2.12 1.347-0.433 2.77-0.65 4.27-0.65v0c1.3 0 2.59 0.123 3.87 0.37 1.287 0.253 2.43 0.597 3.43 1.03v0c0 0.167 0.007 0.35 0.02 0.55 0.02 0.2 0.03 0.383 0.03 0.55v0c0 2.033-0.317 3.95-0.95 5.75v0c-0.133 0.033-0.257 0.06-0.37 0.08-0.12 0.013-0.247 0.02-0.38 0.02v0c-0.5 0-1-0.1-1.5-0.3v0l-0.8-5.4c-0.433-0.133-0.933-0.243-1.5-0.33-0.567-0.08-1.133-0.12-1.7-0.12v0c-0.767 0-1.523 0.107-2.27 0.32-0.753 0.22-1.37 0.587-1.85 1.1-0.487 0.52-0.73 1.247-0.73 2.18v0c0 0.633 0.143 1.233 0.43 1.8 0.28 0.567 0.843 1.157 1.69 1.77 0.853 0.62 2.13 1.347 3.83 2.18v0c2.667 1.267 4.54 2.49 5.62 3.67 1.087 1.187 1.63 2.663 1.63 4.43v0c0 1.7-0.45 3.083-1.35 4.15-0.9 1.067-2.077 1.85-3.53 2.35-1.447 0.5-2.987 0.75-4.62 0.75v0c-1.567 0-3.023-0.123-4.37-0.37-1.353-0.253-2.713-0.797-4.08-1.63v0-0.85c0-0.9 0.06-1.827 0.18-2.78 0.113-0.947 0.353-1.97 0.72-3.07v0c0.2-0.033 0.367-0.05 0.5-0.05v0c0.6 0 1.15 0.083 1.65 0.25zM82 0.8v0c-1.067 0-2.033-0.2-2.9-0.6-0.867-0.4-1.543-1.093-2.03-2.08-0.48-0.98-0.72-2.337-0.72-4.07v0-15.95h-3.5c-0.2-0.367-0.31-0.743-0.33-1.13-0.013-0.38 0.013-0.753 0.08-1.12v0c1.4 0 2.45-0.183 3.15-0.55 0.7-0.367 1.243-1 1.63-1.9 0.38-0.9 0.787-2.117 1.22-3.65v0h2.65v5.6h5.25c0.467 0.967 0.467 1.883 0 2.75v0h-5.25v14.7c0 1.533 0.073 2.69 0.22 3.47 0.153 0.787 0.413 1.32 0.78 1.6 0.367 0.287 0.867 0.43 1.5 0.43v0c0.533 0 1.05-0.1 1.55-0.3 0.5-0.2 0.983-0.433 1.45-0.7v0c0.467 0.3 0.717 0.8 0.75 1.5v0c-0.367 0.433-1.033 0.877-2 1.33-0.967 0.447-2.133 0.67-3.5 0.67zM95.15-13.5v1c0 3.367 0.673 5.977 2.02 7.83 1.353 1.847 3.197 2.77 5.53 2.77v0c1.033 0 1.9-0.06 2.6-0.18 0.7-0.113 1.393-0.337 2.08-0.67 0.68-0.333 1.453-0.8 2.32-1.4v0c0.533 0.233 0.833 0.633 0.9 1.2v0c-1.033 1.2-2.267 2.133-3.7 2.8-1.433 0.667-2.883 1-4.35 1v0c-2.533 0-4.75-0.533-6.65-1.6-1.9-1.067-3.383-2.6-4.45-4.6-1.067-2-1.6-4.383-1.6-7.15v0c0-2.833 0.56-5.243 1.68-7.23 1.113-1.98 2.613-3.497 4.5-4.55 1.88-1.047 3.97-1.57 6.27-1.57v0c2.967 0 5.16 0.99 6.58 2.97 1.413 1.987 2.12 4.547 2.12 7.68v0c0 0.233 0 0.45 0 0.65 0 0.2-0.017 0.417-0.05 0.65v0l-0.7 0.55zM102.25-23.7v0c-0.967 0-1.923 0.3-2.87 0.9-0.953 0.6-1.797 1.5-2.53 2.7-0.733 1.2-1.233 2.717-1.5 4.55v0l10.9-0.6c0-2.567-0.277-4.467-0.83-5.7-0.547-1.233-1.603-1.85-3.17-1.85zM122.5-25.05l-0.15 3.4 0.05 0.05c1.533-1.6 3.1-2.7 4.7-3.3 1.6-0.6 3-0.9 4.2-0.9v0c1.633 0 3.017 0.357 4.15 1.07 1.133 0.72 1.933 1.763 2.4 3.13v0c1.433-1.6 2.85-2.7 4.25-3.3 1.4-0.6 2.8-0.9 4.2-0.9v0c2.167 0 3.877 0.617 5.13 1.85 1.247 1.233 1.87 3.033 1.87 5.4v0l0.05 16.05 3.5 1c0.1 0.633 0.017 1.217-0.25 1.75v0c-0.9-0.067-1.85-0.123-2.85-0.17-1-0.053-1.967-0.08-2.9-0.08v0c-0.933 0-1.917 0.027-2.95 0.08-1.033 0.047-2.017 0.103-2.95 0.17v0c-0.1-0.633-0.067-1.217 0.1-1.75v0c0.667-0.133 1.257-0.283 1.77-0.45 0.52-0.167 1.03-0.35 1.53-0.55v0-13.8c0-2.267-0.35-3.817-1.05-4.65-0.7-0.833-1.817-1.25-3.35-1.25v0c-0.733 0-1.6 0.24-2.6 0.72-1 0.487-2.017 1.33-3.05 2.53v0 0.4l0.05 16.05 3.5 1c0.1 0.633 0.017 1.217-0.25 1.75v0c-0.9-0.067-1.85-0.123-2.85-0.17-1-0.053-1.967-0.08-2.9-0.08v0c-0.933 0-1.917 0.027-2.95 0.08-1.033 0.047-2.017 0.103-2.95 0.17v0c-0.1-0.633-0.067-1.217 0.1-1.75v0c0.667-0.133 1.257-0.283 1.77-0.45 0.52-0.167 1.03-0.35 1.53-0.55v0-13.8c0-2.267-0.35-3.833-1.05-4.7-0.7-0.867-1.817-1.3-3.35-1.3v0c-0.8 0-1.74 0.24-2.82 0.72-1.087 0.487-2.213 1.247-3.38 2.28v0 16.8l3.35 1c0.1 0.633 0.017 1.217-0.25 1.75v0c-0.9-0.067-1.823-0.123-2.77-0.17-0.953-0.053-1.897-0.08-2.83-0.08v0c-0.933 0-1.95 0.027-3.05 0.08-1.1 0.047-2.117 0.103-3.05 0.17v0c-0.1-0.633-0.067-1.217 0.1-1.75v0c0.6-0.167 1.2-0.327 1.8-0.48 0.6-0.147 1.167-0.32 1.7-0.52v0-19.5l-4.15-0.4c-0.1-0.667-0.017-1.25 0.25-1.75v0c1.233-0.2 2.433-0.417 3.6-0.65 1.167-0.233 2.283-0.467 3.35-0.7v0c0.567 0.033 1.133 0.183 1.7 0.45z" fill="#000000" fill-rule="nonzero" stroke="none" stroke-width="1" stroke-linecap="butt" stroke-linejoin="miter" stroke-miterlimit="10" stroke-dasharray="" stroke-dashoffset="0" font-family="none" font-weight="none" font-size="none" text-anchor="none" style="mix-blend-mode: normal" data-fill-palette-color="primary" opacity="1"></path></g></svg></g></svg></g><g transform="matrix(1,0,0,1,0,209.82895738737182)"><svg viewBox="0 0 143.1389443830298 11.09510732432281" height="11.09510732432281" width="143.1389443830298"><g transform="matrix(1,0,0,1,0,0)"><svg width="143.1389443830298" viewBox="4.25 -36 593.39 46" height="11.09510732432281" data-palette-color="#61777f"><path d="M4.25 0L4.25-35 8.25-35 8.25-19.55 9.95-19.55 24.4-35 29.55-35 13.45-17.8 29.7 0 24.4 0 9.9-16.05 8.25-16.05 8.25 0 4.25 0ZM43.2 0.35L43.2 0.35Q39.7 0.35 36.97-1.35 34.25-3.05 32.7-6 31.15-8.95 31.15-12.75L31.15-12.75Q31.15-16.4 32.7-19.25 34.25-22.1 36.95-23.73 39.65-25.35 43.1-25.35L43.1-25.35Q46.5-25.35 49.17-23.85 51.85-22.35 53.35-19.7 54.85-17.05 54.75-13.65L54.75-13.65Q54.75-13.1 54.7-12.5 54.65-11.9 54.6-11.2L54.6-11.2 35.25-11.2Q35.35-8.85 36.4-7.05 37.45-5.25 39.17-4.23 40.9-3.2 43.1-3.2L43.1-3.2Q46-3.2 48.02-4.3 50.05-5.4 50.95-7.45L50.95-7.45 54.2-6.15Q52.7-3 49.85-1.33 47 0.35 43.2 0.35ZM35.3-14.45L50.65-14.45Q50.7-16.6 49.72-18.25 48.75-19.9 47-20.85 45.25-21.8 42.95-21.8L42.95-21.8Q40.95-21.8 39.3-20.85 37.65-19.9 36.57-18.23 35.5-16.55 35.3-14.45L35.3-14.45ZM71.4 0.35L71.4 0.35Q67.9 0.35 65.17-1.35 62.45-3.05 60.9-6 59.34-8.95 59.34-12.75L59.34-12.75Q59.34-16.4 60.9-19.25 62.45-22.1 65.14-23.73 67.84-25.35 71.3-25.35L71.3-25.35Q74.7-25.35 77.37-23.85 80.05-22.35 81.55-19.7 83.05-17.05 82.95-13.65L82.95-13.65Q82.95-13.1 82.9-12.5 82.84-11.9 82.8-11.2L82.8-11.2 63.45-11.2Q63.55-8.85 64.59-7.05 65.64-5.25 67.37-4.23 69.09-3.2 71.3-3.2L71.3-3.2Q74.2-3.2 76.22-4.3 78.25-5.4 79.15-7.45L79.15-7.45 82.4-6.15Q80.9-3 78.05-1.33 75.2 0.35 71.4 0.35ZM63.5-14.45L78.84-14.45Q78.9-16.6 77.92-18.25 76.95-19.9 75.2-20.85 73.45-21.8 71.15-21.8L71.15-21.8Q69.15-21.8 67.5-20.85 65.84-19.9 64.77-18.23 63.7-16.55 63.5-14.45L63.5-14.45ZM92.44-5.05L92.44-5.05 92.84-5.1 92.84 10 89.09 10 89.09-25 92.54-25 92.79-20.35Q93.94-22.45 96.19-23.9 98.44-25.35 101.84-25.35L101.84-25.35Q105.09-25.35 107.69-23.78 110.29-22.2 111.79-19.33 113.29-16.45 113.29-12.5L113.29-12.5Q113.29-8.6 111.87-5.73 110.44-2.85 107.87-1.25 105.29 0.35 101.84 0.35L101.84 0.35Q98.24 0.35 95.89-1.2 93.54-2.75 92.44-5.05ZM109.24-12.5L109.24-12.5Q109.24-16.8 107.02-19.33 104.79-21.85 101.04-21.85L101.04-21.85Q98.69-21.85 96.82-20.75 94.94-19.65 93.89-17.55 92.84-15.45 92.84-12.5L92.84-12.5Q92.84-9.6 93.89-7.5 94.94-5.4 96.82-4.28 98.69-3.15 101.04-3.15L101.04-3.15Q104.79-3.15 107.02-5.68 109.24-8.2 109.24-12.5ZM132.09-7.45L135.74-8.9Q136.04-7.55 137.01-6.23 137.99-4.9 139.71-4.03 141.44-3.15 144.14-3.15L144.14-3.15Q147.99-3.15 149.84-4.95 151.69-6.75 151.69-9.2L151.69-9.2Q151.69-11.15 150.64-12.4 149.59-13.65 147.79-14.48 145.99-15.3 143.74-15.95L143.74-15.95Q141.74-16.5 139.76-17.18 137.79-17.85 136.19-18.88 134.59-19.9 133.64-21.55 132.69-23.2 132.69-25.65L132.69-25.65Q132.69-28.6 134.09-30.78 135.49-32.95 138.04-34.15 140.59-35.35 143.99-35.35L143.99-35.35Q146.94-35.35 149.14-34.5 151.34-33.65 152.81-32.13 154.29-30.6 154.99-28.6L154.99-28.6 151.44-27.25Q151.09-28.4 150.09-29.48 149.09-30.55 147.49-31.25 145.89-31.95 143.84-31.95L143.84-31.95Q141.84-31.95 140.21-31.25 138.59-30.55 137.64-29.25 136.69-27.95 136.69-26.1L136.69-26.1Q136.69-24.1 137.81-22.93 138.94-21.75 140.81-21.03 142.69-20.3 144.94-19.65L144.94-19.65Q146.99-19 148.91-18.25 150.84-17.5 152.36-16.4 153.89-15.3 154.79-13.65 155.69-12 155.69-9.6L155.69-9.6Q155.69-6.95 154.44-4.67 153.19-2.4 150.66-1.03 148.14 0.35 144.19 0.35L144.19 0.35Q140.89 0.35 138.39-0.68 135.89-1.7 134.29-3.45 132.69-5.2 132.09-7.45L132.09-7.45ZM162.09 0L162.09-25 165.54-25 165.79-21.4Q166.89-23.2 168.76-24.28 170.64-25.35 173.24-25.35L173.24-25.35Q175.89-25.35 178.06-24.08 180.24-22.8 181.44-20.3L181.44-20.3Q182.59-22.85 184.94-24.1 187.29-25.35 190.14-25.35L190.14-25.35Q192.94-25.35 195.09-24.13 197.24-22.9 198.44-20.48 199.64-18.05 199.64-14.4L199.64-14.4 199.64 0 195.89 0 195.89-13.95Q195.89-17.85 194.21-19.88 192.54-21.9 189.44-21.9L189.44-21.9Q186.29-21.9 184.44-19.73 182.59-17.55 182.59-13.3L182.59-13.3 182.59 0 178.84 0 178.84-13.95Q178.84-17.85 177.24-19.88 175.64-21.9 172.54-21.9L172.54-21.9Q169.39-21.9 167.61-19.73 165.84-17.55 165.84-13.3L165.84-13.3 165.84 0 162.09 0ZM207.63 0L207.63-25 211.33-25 211.33 0 207.63 0ZM209.53-30L209.53-30Q208.38-30 207.63-30.75 206.88-31.5 206.88-32.6L206.88-32.6Q206.88-33.75 207.63-34.5 208.38-35.25 209.53-35.25L209.53-35.25Q210.58-35.25 211.36-34.5 212.13-33.75 212.13-32.6L212.13-32.6Q212.13-31.5 211.36-30.75 210.58-30 209.53-30ZM219.78 0L219.78-36 223.53-36 223.53 0 219.78 0ZM231.93 0L231.93-25 235.63-25 235.63 0 231.93 0ZM233.83-30L233.83-30Q232.68-30 231.93-30.75 231.18-31.5 231.18-32.6L231.18-32.6Q231.18-33.75 231.93-34.5 232.68-35.25 233.83-35.25L233.83-35.25Q234.88-35.25 235.65-34.5 236.43-33.75 236.43-32.6L236.43-32.6Q236.43-31.5 235.65-30.75 234.88-30 233.83-30ZM244.08 0L244.08-25 247.53-25 247.73-21.45Q248.93-23.3 250.88-24.33 252.83-25.35 255.43-25.35L255.43-25.35Q258.28-25.35 260.43-24.13 262.58-22.9 263.78-20.48 264.98-18.05 264.98-14.4L264.98-14.4 264.98 0 261.23 0 261.23-13.95Q261.23-17.85 259.55-19.88 257.88-21.9 254.73-21.9L254.73-21.9Q251.48-21.9 249.65-19.75 247.83-17.6 247.83-13.4L247.83-13.4 247.83 0 244.08 0ZM291.17-20.35L291.42-25 294.87-25 294.87-4.6Q294.87 0 292.82 3.28 290.77 6.55 286.87 8.28 282.97 10 277.37 10L277.37 10 276.77 6.55Q283.82 6.45 287.47 3.63 291.12 0.8 291.12-4.6L291.12-4.6 291.12-5.15 291.52-5.05Q290.37-2.85 288.07-1.28 285.77 0.3 282.12 0.35L282.12 0.35Q278.67 0.35 276.1-1.23 273.52-2.8 272.1-5.7 270.67-8.6 270.67-12.5L270.67-12.5Q270.67-16.4 272.1-19.28 273.52-22.15 276.1-23.75 278.67-25.35 282.12-25.35L282.12-25.35Q284.37-25.35 286.12-24.68 287.87-24 289.12-22.88 290.37-21.75 291.17-20.35L291.17-20.35ZM274.72-12.5L274.72-12.5Q274.72-8.2 276.95-5.68 279.17-3.15 282.97-3.15L282.97-3.15Q285.27-3.15 287.12-4.25 288.97-5.35 290.05-7.45 291.12-9.55 291.12-12.5L291.12-12.5Q291.12-15.45 290.05-17.53 288.97-19.6 287.12-20.73 285.27-21.85 282.97-21.85L282.97-21.85Q279.22-21.85 276.97-19.3 274.72-16.75 274.72-12.5ZM300.57 7.25L304.27-6.05 308.67-6.05 303.27 7.25 300.57 7.25ZM328.17-6.45L331.77-7.65Q332.07-6.15 332.87-5.18 333.67-4.2 334.94-3.7 336.22-3.2 337.92-3.2L337.92-3.2Q340.57-3.2 341.94-4.23 343.32-5.25 343.32-6.8L343.32-6.8Q343.32-8.1 342.49-8.9 341.67-9.7 340.32-10.23 338.97-10.75 337.32-11.15L337.32-11.15Q336.02-11.45 334.52-11.88 333.02-12.3 331.67-13.05 330.32-13.8 329.47-15 328.62-16.2 328.62-18.15L328.62-18.15Q328.62-20.3 329.79-21.93 330.97-23.55 333.04-24.45 335.12-25.35 337.82-25.35L337.82-25.35Q340.92-25.35 343.34-24 345.77-22.65 346.72-19.8L346.72-19.8 343.22-18.6Q342.87-19.9 341.94-20.6 341.02-21.3 339.89-21.55 338.77-21.8 337.67-21.8L337.67-21.8Q335.42-21.8 334.04-20.93 332.67-20.05 332.67-18.3L332.67-18.3Q332.67-17.35 333.12-16.73 333.57-16.1 334.37-15.7 335.17-15.3 336.27-15.03 337.37-14.75 338.67-14.4L338.67-14.4Q340.12-14.05 341.62-13.53 343.12-13 344.42-12.18 345.72-11.35 346.54-10.08 347.37-8.8 347.37-6.9L347.37-6.9Q347.37-4.7 346.17-3.08 344.97-1.45 342.84-0.55 340.72 0.35 337.92 0.35L337.92 0.35Q334.07 0.35 331.54-1.38 329.02-3.1 328.17-6.45L328.17-6.45ZM351.31-25L355.06-25 355.06-32 358.81-32 358.81-25 365.46-25 365.46-21.5 358.81-21.5 358.81-8.05Q358.81-5.75 359.79-4.7 360.76-3.65 362.29-3.45 363.81-3.25 365.46-3.45L365.46-3.45 365.46-0.2Q363.51 0.25 361.64 0.05 359.76-0.15 358.29-1.07 356.81-2 355.94-3.7 355.06-5.4 355.06-8.05L355.06-8.05 355.06-21.5 351.31-21.5 351.31-25ZM390.16 0L386.71 0 386.41-4.5Q385.36-2.2 383.31-0.93 381.26 0.35 378.11 0.35L378.11 0.35Q375.41 0.35 373.51-0.5 371.61-1.35 370.59-2.93 369.56-4.5 369.56-6.65L369.56-6.65Q369.56-9.8 371.91-11.83 374.26-13.85 378.71-14.3L378.71-14.3 386.41-15.15 386.41-17.15Q386.41-19.25 384.86-20.53 383.31-21.8 380.66-21.8L380.66-21.8Q378.06-21.8 376.34-20.6 374.61-19.4 373.96-17.15L373.96-17.15 370.56-18.35Q371.56-21.65 374.24-23.5 376.91-25.35 380.76-25.35L380.76-25.35Q385.21-25.35 387.69-23.08 390.16-20.8 390.16-16.9L390.16-16.9 390.16 0ZM386.41-11.15L386.41-11.95 378.66-11.05Q376.16-10.75 374.86-9.68 373.56-8.6 373.56-6.85L373.56-6.85Q373.56-5.1 374.84-4.05 376.11-3 378.51-3L378.51-3Q381.26-3 383.01-4.1 384.76-5.2 385.59-7.08 386.41-8.95 386.41-11.15L386.41-11.15ZM406.06-4.8L413.81-25 417.71-25 403.41 10 399.81 10 404.06-0.35 393.96-25 398.06-25 406.06-4.8ZM436.5 0L436.5-36 440.25-36 440.25-21.6Q441.45-23.4 443.5-24.38 445.55-25.35 448.1-25.35L448.1-25.35Q450.85-25.35 453-24.1 455.15-22.85 456.38-20.4 457.6-17.95 457.6-14.3L457.6-14.3 457.6 0 453.6 0 453.6-13.85Q453.6-17.75 451.95-19.83 450.3-21.9 447.15-21.9L447.15-21.9Q443.9-21.9 442.08-19.7 440.25-17.5 440.25-13.3L440.25-13.3 440.25 0 436.5 0ZM475.35 0.35L475.35 0.35Q471.85 0.35 469.13-1.35 466.4-3.05 464.85-6 463.3-8.95 463.3-12.75L463.3-12.75Q463.3-16.4 464.85-19.25 466.4-22.1 469.1-23.73 471.8-25.35 475.25-25.35L475.25-25.35Q478.65-25.35 481.33-23.85 484-22.35 485.5-19.7 487-17.05 486.9-13.65L486.9-13.65Q486.9-13.1 486.85-12.5 486.8-11.9 486.75-11.2L486.75-11.2 467.4-11.2Q467.5-8.85 468.55-7.05 469.6-5.25 471.33-4.23 473.05-3.2 475.25-3.2L475.25-3.2Q478.15-3.2 480.18-4.3 482.2-5.4 483.1-7.45L483.1-7.45 486.35-6.15Q484.85-3 482-1.33 479.15 0.35 475.35 0.35ZM467.45-14.45L482.8-14.45Q482.85-16.6 481.88-18.25 480.9-19.9 479.15-20.85 477.4-21.8 475.1-21.8L475.1-21.8Q473.1-21.8 471.45-20.85 469.8-19.9 468.73-18.23 467.65-16.55 467.45-14.45L467.45-14.45ZM512.15 0L508.7 0 508.4-4.5Q507.35-2.2 505.3-0.93 503.25 0.35 500.1 0.35L500.1 0.35Q497.4 0.35 495.5-0.5 493.6-1.35 492.57-2.93 491.55-4.5 491.55-6.65L491.55-6.65Q491.55-9.8 493.9-11.83 496.25-13.85 500.7-14.3L500.7-14.3 508.4-15.15 508.4-17.15Q508.4-19.25 506.85-20.53 505.3-21.8 502.65-21.8L502.65-21.8Q500.05-21.8 498.32-20.6 496.6-19.4 495.95-17.15L495.95-17.15 492.55-18.35Q493.55-21.65 496.22-23.5 498.9-25.35 502.75-25.35L502.75-25.35Q507.2-25.35 509.67-23.08 512.15-20.8 512.15-16.9L512.15-16.9 512.15 0ZM508.4-11.15L508.4-11.95 500.65-11.05Q498.15-10.75 496.85-9.68 495.55-8.6 495.55-6.85L495.55-6.85Q495.55-5.1 496.82-4.05 498.1-3 500.5-3L500.5-3Q503.25-3 505-4.1 506.75-5.2 507.57-7.08 508.4-8.95 508.4-11.15L508.4-11.15ZM519.45 0L519.45-36 523.2-36 523.2 0 519.45 0ZM528.69-25L532.44-25 532.44-32 536.19-32 536.19-25 542.84-25 542.84-21.5 536.19-21.5 536.19-8.05Q536.19-5.75 537.17-4.7 538.14-3.65 539.67-3.45 541.19-3.25 542.84-3.45L542.84-3.45 542.84-0.2Q540.89 0.25 539.02 0.05 537.14-0.15 535.67-1.07 534.19-2 533.32-3.7 532.44-5.4 532.44-8.05L532.44-8.05 532.44-21.5 528.69-21.5 528.69-25ZM548.44 0L548.44-36 552.19-36 552.19-21.6Q553.39-23.4 555.44-24.38 557.49-25.35 560.04-25.35L560.04-25.35Q562.79-25.35 564.94-24.1 567.09-22.85 568.31-20.4 569.54-17.95 569.54-14.3L569.54-14.3 569.54 0 565.54 0 565.54-13.85Q565.54-17.75 563.89-19.83 562.24-21.9 559.09-21.9L559.09-21.9Q555.84-21.9 554.01-19.7 552.19-17.5 552.19-13.3L552.19-13.3 552.19 0 548.44 0ZM585.99-4.8L593.74-25 597.64-25 583.34 10 579.74 10 583.99-0.35 573.89-25 577.99-25 585.99-4.8Z" opacity="1" transform="matrix(1,0,0,1,0,0)" fill="#000000" class="slogan-text-1" data-fill-palette-color="secondary" id="text-1"></path></svg></g></svg></g></svg></g></svg></g><g transform="matrix(1,0,0,1,0,36.439028591327116)"><svg viewBox="0 0 150.67257303476822 149.15062785259883" height="149.15062785259883" width="150.67257303476822"><g><svg xmlns="http://www.w3.org/2000/svg" xmlns:xlink="http://www.w3.org/1999/xlink" version="1.1" x="0" y="0" viewBox="0.5 2 99 98" enable-background="new 0 0 100 100" xml:space="preserve" height="149.15062785259883" width="150.67257303476822" class="icon-icon-0" data-fill-palette-color="accent" id="icon-0"><path fill="#000000" d="M99.5 42.9L86.4 33.4 87.8 17.3 71.6 16.4 64.1 2 50 10 35.9 2 28.4 16.3 12.2 17.2 13.6 33.3 0.5 42.9 10.4 55.7 4.5 70.8 19.8 76.2 23 92.1 38.8 88.4 50 100 61.3 88.4 77 92.1 80.2 76.2 95.5 70.8 89.6 55.7zM55.5 72.9H44.5V64.5H55.5zM55.5 57.6H44.5V23H55.5z" data-fill-palette-color="accent"></path></svg></g></svg></g></svg></g><defs></defs></svg><rect width="379.08259822203826" height="200" fill="none" stroke="none" visibility="hidden"></rect></g></svg></g></svg>